<?xml version="1.0" encoding="UTF-8"?> <svg xmlns="http://www.w3.org/2000/svg" width="58" height="58" viewBox="0 0 58 58" fill="none"><path fill-rule="evenodd" clip-rule="evenodd" d="M25.5733 0.0960212C35.9584 -0.64066 44.5821 2.86155 51.4444 10.6031C58.9547 20.6492 60.0119 31.3544 54.6163 42.7189C48.1794 53.5217 38.6305 58.577 25.9698 57.8847C15.0726 56.353 7.24187 50.637 2.47763 40.7364C-1.83759 29.9913 -0.516084 20.013 6.44254 10.8013C11.5053 4.88326 17.8823 1.31484 25.5733 0.0960212Z" fill="#73624C"></path><path fill-rule="evenodd" clip-rule="evenodd" d="M25.7783 0.69046C38.0081 0.047747 47.3588 4.87186 53.8301 15.1624C57.2384 21.398 58.2296 28.0062 56.8038 34.987C54.0712 45.6494 47.496 52.7532 37.0783 56.2984C25.3182 59.2063 15.373 56.1995 7.24233 47.2782C-0.498771 37.0378 -1.42398 26.2005 4.46689 14.7659C9.44286 6.84857 16.5468 2.15688 25.7783 0.69046Z" fill="#F3F2F0"></path><path fill-rule="evenodd" clip-rule="evenodd" d="M25.7736 1.48233C37.2732 0.740093 46.2274 5.1015 52.6359 14.5666C58.5753 25.4588 57.9806 35.9658 50.8517 46.0876C44.279 53.9638 35.8536 57.4331 25.5753 56.4956C14.5786 54.6172 7.01217 48.5047 2.87617 38.1578C-0.607804 26.3525 2.13453 16.275 11.1034 7.92532C15.4075 4.41795 20.2976 2.27035 25.7736 1.48233Z" fill="#6A5941"></path><path fill-rule="evenodd" clip-rule="evenodd" d="M26.7588 45.2949C26.9563 48.2337 27.0223 51.2074 26.957 54.216C26.6401 54.2691 26.3758 54.2029 26.1641 54.0177C26.3623 54.0177 26.5606 54.0177 26.7588 54.0177C26.7588 51.1101 26.7588 48.2026 26.7588 45.2949Z" fill="#ACA295"></path><path fill-rule="evenodd" clip-rule="evenodd" d="M34.492 42.1248C35.8214 42.1144 37.1429 42.2136 38.4569 42.4221C40.226 42.8822 42.0102 43.2787 43.8095 43.6116C45.8094 43.7522 47.7919 43.6861 49.7569 43.4133C45.1697 49.7719 38.9581 53.3072 31.1218 54.0195C31.0887 51.1112 31.1218 48.2036 31.2209 45.2967C31.8319 43.7272 32.9223 42.6699 34.492 42.1248Z" fill="#FDFDFC"></path><path fill-rule="evenodd" clip-rule="evenodd" d="M26.7572 45.2966C26.7572 48.2043 26.7572 51.1118 26.7572 54.0194C26.5589 54.0194 26.3607 54.0194 26.1624 54.0194C18.6501 53.0734 12.7027 49.5381 8.32031 43.4133C10.2116 43.7081 12.128 43.7741 14.0694 43.6115C16.2438 43.1175 18.4245 42.655 20.6116 42.2238C22.8811 41.7468 24.7644 42.3745 26.2616 44.1071C26.484 44.4852 26.6491 44.8817 26.7572 45.2966Z" fill="#FDFDFD"></path><path fill-rule="evenodd" clip-rule="evenodd" d="M30.5318 34.1924C30.6641 34.8531 30.7961 35.5141 30.9283 36.1748C30.8318 36.3677 30.7327 36.566 30.631 36.7696C30.532 35.913 30.4989 35.054 30.5318 34.1924Z" fill="#BCB4A9"></path><path fill-rule="evenodd" clip-rule="evenodd" d="M27.5566 34.1924C27.5896 35.12 27.5564 36.045 27.4575 36.9678C27.3007 36.721 27.2016 36.4567 27.1602 36.1748C27.2924 35.5141 27.4244 34.8531 27.5566 34.1924Z" fill="#A99F91"></path><path fill-rule="evenodd" clip-rule="evenodd" d="M46.3848 31.6156C48.9517 31.4492 51.4627 31.7137 53.9182 32.4085C53.7058 34.5516 53.1442 36.6002 52.2331 38.5542C49.7689 40.9963 46.8281 41.7893 43.4111 40.9331C45.9344 39.1693 47.8509 36.8895 49.1603 34.0936C48.4026 33.4664 47.6096 33.4664 46.7813 34.0936C45.3936 36.0101 43.7416 37.662 41.8252 39.0498C39.6835 40.0394 37.4699 40.2046 35.1839 39.5454C34.3963 39.5321 33.6364 39.6641 32.9041 39.9419C32.7017 39.8424 32.6686 39.7103 32.805 39.5454C36.395 35.289 40.9216 32.6458 46.3848 31.6156Z" fill="#FCFCFB"></path><path fill-rule="evenodd" clip-rule="evenodd" d="M7.32916 31.6179C14.8403 31.376 20.9199 34.1846 25.5678 40.0433C24.5115 39.7801 23.4212 39.6149 22.2967 39.5477C19.1002 40.4971 16.3577 39.7704 14.0695 37.367C13.1816 36.2475 12.2564 35.1572 11.2941 34.096C10.825 33.8515 10.3294 33.6864 9.80723 33.6004C9.404 33.5869 9.10663 33.7522 8.91512 34.096C10.1573 36.845 12.0076 39.092 14.466 40.8363C7.75241 42.0185 4.38223 39.2099 4.35547 32.4109C5.36256 32.1099 6.35379 31.8457 7.32916 31.6179Z" fill="#FCFCFC"></path><path fill-rule="evenodd" clip-rule="evenodd" d="M54.124 27.4541C54.3849 28.547 54.3849 29.6705 54.124 30.8243C54.0037 30.7997 53.9377 30.7337 53.9258 30.626C54.1216 29.6071 54.1877 28.5496 54.124 27.4541Z" fill="#978B7B"></path><path fill-rule="evenodd" clip-rule="evenodd" d="M54.1176 27.4535C54.1812 28.549 54.1152 29.6064 53.9193 30.6254C53.2758 29.8156 52.4168 29.386 51.3421 29.3368C49.007 29.1925 46.6942 29.2585 44.4035 29.5351C44.8194 28.9693 45.2819 28.4406 45.7912 27.9491C48.0013 26.9836 50.314 26.488 52.7298 26.4623C52.7096 25.4821 52.2471 24.7883 51.3421 24.3807C50.3459 24.3157 49.3547 24.3157 48.3684 24.3807C49.3345 23.4396 49.5658 22.3493 49.0623 21.1096C48.7869 20.7673 48.4564 20.5028 48.0711 20.3166C45.5902 24.5177 42.5174 28.2512 38.8526 31.5175C37.1975 32.3478 35.6775 33.3719 34.293 34.5903C36.7865 27.2372 41.6766 22.0497 48.9632 19.028C49.9332 18.5887 50.9244 18.4236 51.9368 18.5324C53.2433 21.3638 53.9703 24.3375 54.1176 27.4535Z" fill="#FBFBFA"></path><path fill-rule="evenodd" clip-rule="evenodd" d="M6.14744 18.335C12.7242 19.8569 17.7795 23.4915 21.3132 29.2385C22.398 31.01 23.257 32.8602 23.8904 34.7894C22.5588 33.545 21.072 32.5206 19.4299 31.7166C15.5116 28.4659 12.3726 24.6001 10.0132 20.1192C8.48654 21.3249 8.32141 22.7126 9.51762 24.2823C8.45582 24.2114 7.39857 24.3105 6.34569 24.5797C5.67324 25.0327 5.34276 25.6605 5.35446 26.463C7.68286 26.5669 9.92977 27.0625 12.0948 27.9499C12.6128 28.4679 13.1414 28.9964 13.6808 29.5359C11.3191 29.2502 8.94013 29.1842 6.54393 29.3376C5.53883 29.427 4.71293 29.8566 4.06586 30.6262C3.99984 30.5602 3.93363 30.494 3.86761 30.428C3.60315 26.1988 4.36303 22.1678 6.14744 18.335Z" fill="#FBFAFA"></path><path fill-rule="evenodd" clip-rule="evenodd" d="M39.249 12.1885C39.5101 13.3474 39.5101 14.5369 39.249 15.7569C39.1287 15.7323 39.0627 15.6663 39.0508 15.5587C39.2468 14.4733 39.3129 13.3498 39.249 12.1885Z" fill="#BEB6AD"></path><path fill-rule="evenodd" clip-rule="evenodd" d="M39.2472 12.1876C39.311 13.349 39.245 14.4724 39.0489 15.5578C38.6612 13.791 37.9013 12.2051 36.7691 10.7999C35.9028 9.25142 35.5723 7.59943 35.7779 5.84377C35.8493 5.46294 36.0146 5.13246 36.2735 4.85254C42.3662 6.84947 47.1241 10.5499 50.5472 15.9543C46.9459 16.9289 43.7079 18.5809 40.8332 20.9105C40.8018 19.6546 41.2314 18.5313 42.1217 17.5403C43.4282 16.1006 44.8488 14.812 46.384 13.6745C46.2544 13.2806 45.9901 13.0163 45.5911 12.8815C44.0796 12.4977 42.857 12.9271 41.9235 14.1701C41.9489 12.0322 41.5524 9.98354 40.734 8.02447C40.0437 7.35381 39.2176 7.08955 38.256 7.23149C38.7434 8.85136 39.0739 10.5033 39.2472 12.1876Z" fill="#FBFBFA"></path><path fill-rule="evenodd" clip-rule="evenodd" d="M21.6067 4.85254C22.0676 5.08151 22.299 5.478 22.3006 6.04201C22.5224 7.58199 22.2581 9.03573 21.5076 10.4034C20.2632 12.099 19.3382 13.9494 18.7321 15.9543C18.4899 12.9695 18.8535 10.0618 19.8225 7.23149C17.8569 7.11492 16.7665 8.04013 16.5514 10.0069C16.3732 11.3925 16.2079 12.7802 16.0558 14.1701C15.1798 12.9073 13.9903 12.4777 12.4874 12.8815C12.0883 13.0163 11.8241 13.2806 11.6944 13.6745C13.5 15.0172 15.1191 16.5701 16.5514 18.3333C16.9091 19.1027 17.2064 19.8956 17.4435 20.7122C17.344 20.9146 17.212 20.9477 17.0471 20.8113C14.2395 18.5152 11.0676 16.8964 7.53125 15.9543C10.9431 10.6257 15.6347 6.9252 21.6067 4.85254Z" fill="#FAF9F9"></path><path fill-rule="evenodd" clip-rule="evenodd" d="M30.929 36.1762C30.7967 35.5154 30.6647 34.8545 30.5325 34.1937C30.4994 31.0198 30.4663 27.8478 30.4334 24.6779C30.9609 22.1641 32.0183 19.9172 33.6053 17.9375C34.0299 17.0514 34.1622 16.1262 34.0018 15.1621C33.9197 15.0715 33.8206 15.0053 33.7044 14.9638C31.669 16.5022 30.1162 18.4185 29.0456 20.713C28.012 18.4879 26.5251 16.6045 24.5851 15.063C24.397 14.9407 24.2318 14.9736 24.0895 15.1621C23.9374 15.9737 24.0035 16.7667 24.2877 17.541C25.0807 18.8628 25.8737 20.1843 26.6667 21.506C27.1203 22.6592 27.4506 23.8486 27.6579 25.0744C27.6294 28.1121 27.5963 31.152 27.5588 34.1937C27.4266 34.8545 27.2945 35.5154 27.1623 36.1762C26.2857 34.0426 25.7571 31.829 25.5763 29.5349C25.6116 28.0415 26.0081 26.6538 26.7658 25.3718C24.8222 24.844 23.6656 25.6041 23.2965 27.6516C20.7558 23.848 20.1611 19.7511 21.5123 15.3603C22.7164 12.636 24.5667 10.4553 27.0632 8.81823C27.3342 7.9856 27.4333 7.1266 27.3606 6.24103C26.433 6.40458 25.6069 6.80108 24.8825 7.43051C25.0072 6.24579 24.6436 5.25456 23.7921 4.45682C27.3017 3.63112 30.8039 3.66403 34.2992 4.55594C33.4727 5.32018 33.0762 6.2785 33.1097 7.43051C32.4358 6.88969 31.7089 6.42718 30.929 6.04279C30.3878 6.98287 30.4209 7.90808 31.0281 8.81823C36.22 12.2965 38.2024 17.1206 36.9755 23.2902C36.3026 24.8341 35.5757 26.3541 34.7948 27.8498C34.478 25.7639 33.3216 24.9378 31.3255 25.3718C32.1857 26.6994 32.5161 28.1531 32.3167 29.7332C32.2836 30.493 32.2507 31.2531 32.2176 32.013C31.806 33.4126 31.3764 34.8003 30.929 36.1762Z" fill="#FBFBFA"></path><path fill-rule="evenodd" clip-rule="evenodd" d="M28.1446 10.208C30.1088 9.80779 31.2323 10.5679 31.5148 12.4879C31.2091 14.7181 30.383 16.7337 29.0367 18.5344C27.4101 16.4956 26.6171 14.1827 26.6577 11.5958C26.9813 10.9263 27.4769 10.4638 28.1446 10.208Z" fill="#1BAFEF"></path></svg> 